/* XPM */
static char *_ce6adf03083439eeacea50165376577sit4myQRD5Hx1AiX[] = {
/* columns rows colors chars-per-pixel */
"50 50 122 2 ",
"   c #010000",
".  c #0B0200",
"X  c #010609",
"o  c #02080C",
"O  c #0B0B0B",
"+  c #130500",
"@  c #1B0600",
"#  c #140902",
"$  c #1C0A01",
"%  c #121212",
"&  c #161A1D",
"*  c #1E1F1F",
"=  c #200700",
"-  c #240B00",
";  c #2C0E00",
":  c #330E00",
">  c #2D1001",
",  c #351301",
"<  c #3B1501",
"1  c #3E1801",
"2  c #361B0C",
"3  c #201E1D",
"4  c #1A2023",
"5  c #232323",
"6  c #2D2C2C",
"7  c #2D2F30",
"8  c #2C3033",
"9  c #333334",
"0  c #373B3E",
"q  c #3C3C3C",
"w  c #421601",
"e  c #4A1701",
"r  c #441A02",
"t  c #4B1C02",
"y  c #441E09",
"u  c #531E02",
"i  c #5A1E02",
"p  c #562102",
"a  c #5C2202",
"s  c #4D2712",
"d  c #562E17",
"f  c #5A321B",
"g  c #632302",
"h  c #6B2502",
"j  c #742702",
"k  c #772A03",
"l  c #7C2A03",
"z  c #7D2B03",
"x  c #66381E",
"c  c #403E3E",
"v  c #6C3C22",
"b  c #40403F",
"n  c #48413D",
"m  c #52443D",
"M  c #6D432B",
"N  c #6B4A37",
"B  c #634C3F",
"V  c #744D37",
"C  c #3C3F41",
"Z  c #3D4144",
"A  c #3E4549",
"S  c gray25",
"D  c gray26",
"F  c #434343",
"G  c #444343",
"H  c #444444",
"J  c #464646",
"K  c gray28",
"L  c #484645",
"P  c #484848",
"I  c gray29",
"U  c #4E4D4D",
"Y  c #504641",
"T  c #534842",
"R  c #555555",
"E  c #585858",
"W  c #802A03",
"Q  c #832D03",
"!  c #843103",
"~  c #843507",
"^  c #8B3003",
"/  c #8C3103",
"(  c #933103",
")  c #953304",
"_  c #993404",
"`  c #9D3704",
"'  c #A23704",
"]  c #A33704",
"[  c #A43904",
"{  c #AB3C04",
"}  c #B73E05",
"|  c #B34005",
" . c #BA4005",
".. c #BC4105",
"X. c #C54506",
"o. c #CE4706",
"O. c #CD4906",
"+. c #CE4A06",
"@. c #D34B06",
"#. c #D34C06",
"$. c #D54C06",
"%. c #DD4E06",
"&. c #DF4E06",
"*. c #E14F07",
"=. c #E35106",
"-. c #E45307",
";. c #EC5207",
":. c #EF5407",
">. c #F35507",
",. c #F55607",
"<. c #F55807",
"1. c #F45508",
"2. c #F65508",
"3. c #F45708",
"4. c #F95708",
"5. c #FC5708",
"6. c #F65808",
"7. c #FB5808",
"8. c #FC5A08",
"9. c #FF5D08",
"0. c #FF5F08",
"q. c #FF6108",
/* pixels */
"J J J J J F J q 6 5 5 * 6 q q q q q q q b G J J G q q q q Z G J b 6 5 * * 5 6 6 6 7 q q q q q q q q ",
"J J J J J J P q 9 5 * * 6 q q q q q q q q F J J J q q q q F G J q 6 5 5 5 5 6 6 8 9 9 q q q q q q q ",
"J J J J J J J q 6 5 5 3 6 q q q q q q q F F J J J q q q q b G J q 9 5 5 * 5 6 6 6 9 q q q q q q q q ",
"J J J J F J J F 6 5 * 3 6 q q q q q 0 q q H J L H q q q b F G J b 6 5 3 5 5 6 6 6 7 q q q q q q q q ",
"J F F J J J J q 7 5 5 3 6 q q q q q q q q G H L G q Z q q q P P c 7 5 3 3 5 6 6 6 9 q q q q q q q q ",
"J J J J J F J q 7 5 5 3 6 q q q q q q q q F H L G q 5 O   O 5 J c 8 5 3 5 5 6 6 6 7 9 q q q q q q q ",
"J J J J J J J q 7 5 3 3 6 q c q q q q q F J J P J %           & F 6 5 * 3 5 6 6 6 9 9 c q q q q q q ",
"F F F F F J J q 6 5 3 3 6 9 q 9 9 q q q q * % & &     O 9 *     9 7 5 * * 6 7 8 9 9 9 q 9 q 9 q q 9 ",
"q q q F q F q q 6 5 * * 6 9 9 9 7 q q q & * 6         5 6 O     9 9 5 * * 6 9 9 9 9 9 9 9 9 9 9 9 9 ",
"q q q q q q q q 6 5 * * 5 7 6 7 9 q q 9 7 G b %               6 F 6 5 * * 6 q 9 0 9 6 6 6 6 6 6 6 6 ",
"q q q q q q q 9 6 5 * * 5 7 6 7 7 q q q c q 8       O 5 & 5 q J H 6 5 5 * 6 q q q 9 6 6 6 6 6 6 6 6 ",
"q q q q q q q 9 6 5 * * 5 6 6 8 9 9 q q b G *       % 9 9 q J J q 6 5 3 * 6 q q q 9 9 6 6 6 6 6 6 6 ",
"6 6 6 6 6 6 6 6 5 5 5 * 5 5 5 5 6 6 5 3 & & o       O & X   % 6 8 6 3 3 5 5 8 6 6 6 5 6 5 5 6 5 5 5 ",
"5 5 5 * 5 5 5 * * * * * 5 * * 5 * O       < t 1 $ # 2 t -       O & 5 3 * 5 3 3 3 5 * 3 * * * * 3 5 ",
"* * * 5 * * * 5 * 5 * 5 * 5 5 %       . t , . a p u p . r t .       % 5 3 * 5 3 5 3 * 4 5 5 * 5 3 5 ",
"5 5 5 5 5 5 5 5 5 5 5 5 5 5 O       . p $   1 ,     > t   $ p #       O 5 5 5 5 5 5 5 5 5 5 5 5 5 5 ",
"6 6 6 6 6 6 6 6 6 6 6 6 9 O         u $   - t         , r     p $       O 7 8 6 6 6 6 6 6 6 6 6 6 6 ",
"q q q q q q q q q q q q &         r >     t .           t $   . p .       & q q q c q q q q q q q q ",
"J J J J J J J J L J P 7         - t   + i w             $ g .   $ u         6 U J J L J J J J J H H ",
"J J J J J J J J J J F O         p + @ / =.- .           . | ` +   < <         q J J J J J J J J J H ",
"F F F b F F F H J P 6         , w + ' 8.2.e .         . ; *.8.{ - + t         5 L H G G b G F F Z F ",
"q q q q q q q q F J %         u - { 8.2.5.j +         . w :.2.8.} = r <       O H H b q q q q q q q ",
"q q q q q q q q H q X       ; a { 8.2.2.8.) + .     .   g 8.4.2.8..., w         9 J 0 q q q q q q q ",
"q q q q q q q q J 9         t @.0.8.8.2.5.} = .         ^ 8.>.4.8.q.#.g .       6 J q q q q q q q q ",
"q 0 9 q q q q 9 n 5         g l Q ' *.,.4.>.; .       . +.q.2.<.@._ l ! $       5 J q q q q q q q q ",
"7 6 7 6 6 7 9 6 9 &       $ p     . w j u h @         . h g a k @ .   , ,       5 b q q q q q q q q ",
"6 6 6 6 6 6 6 6 7 *       - r   .   , <         t u         . t .     ; 1       3 F q q q q q q q q ",
"6 6 6 6 6 6 6 6 7 3       , >   .   < >       . -.-..         < .     ; 1       5 q 9 q q q q q q q ",
"6 6 5 6 5 6 6 5 6 5 .     t { @ .   w ;       + u h +         < + .   , w       6 9 9 9 9 9 9 9 9 9 ",
"5 5 5 5 5 5 5 5 5 5 X     < 0.*.j - w < . + . +       .   .   w @ . :  .w     X 6 6 6 6 6 6 6 6 6 6 ",
"5 * * 5 3 5 5 5 4 5 %     ; $.8.8.$.' l ; : ' e l g h j l - @ a i l =.,.-     % 5 * 5 5 5 5 3 5 3 5 ",
"* * * 5 3 3 3 3 * * *     - ^ >.4.5.5.4.o.o.8.X.:.;.:.>.4.} { &.,.8.q.{ .     & * * * * 3 4 * * * * ",
"5 5 6 5 6 5 5 5 5 5 5 %   + p W 0.2.,.4.8.8.,.8.5.4.5.5.2.8.q.8.>.0.@.i     % 6 5 6 6 6 5 5 6 6 6 6 ",
"0 9 9 9 9 9 9 9 6 5 * * O   r $ _ 0.,.,.5.<.6.,.,.2.,.,.2.2.2.>.0.O.g ,   O 9 9 9 q q J F F F q F H ",
"q F F F q F F q 6 5 * 5 5 X : , . ( 0.0.<.6.0.4.8.8.8.8.4.;.8.q.X.- r .   6 Z Z G J U U U R U U U U ",
"J J J J J J J q 6 5 * * 7 7 # u   . u $.k [ { ) $.W &.' @.g &.l + - t X & 9 G J J P R R R R E E E E ",
"J J J J F J J q 9 5 5 * 6 c 7 2 ,     + t - $ = : @ w - , - g     t $ & 5 9 H J P P R E R R R E E E ",
"U U U U U U U J 9 5 * * 6 q q c x $     r >   .   .   .   w ;   : d 4 * * 6 q q q F P U U R U R U U ",
"R E R E R E E U 9 5 * * 6 q q q J M y .   t             $ r   , v 7 5 5 * 5 6 6 6 0 F J J J J J J J ",
"E E E E E R E U 9 5 * * 6 q q q q Z B v 2 g a         ; ~ y d V C 6 5 * * 5 6 6 7 9 q J J F J F L H ",
"R R R R R R R P 9 5 * * 6 q q q c c C G T m N f y t s M m Y P A c 7 5 3 3 5 6 6 7 9 Z G G F F G H H ",
"I U P P P U U G 9 5 5 * 6 9 9 9 9 q c q q F 0 F Y m G q C F F J c 7 5 4 3 5 6 6 9 9 q n F F F F H n ",
"F F q F F F G q 9 5 5 * 5 6 7 9 7 9 9 9 9 q q q q 9 7 9 9 q F J c 6 5 * 5 5 6 6 6 9 q c q q q q q c ",
"q q q q q q q 9 5 5 * * 5 6 6 6 6 6 6 6 9 q q q q 6 6 6 9 q F J F 7 5 * 5 5 6 6 6 9 9 q q q q q q q ",
"q q q q q q q 9 6 5 * * 5 6 6 6 7 6 6 6 9 9 q q 9 9 6 6 9 q F J q 6 5 3 * 5 6 6 6 9 9 q q q q q q q ",
"q q q q q q q 9 6 5 * 3 5 9 6 6 6 6 6 6 9 9 q q q 7 6 6 6 q F J q 8 5 3 * 6 6 6 6 6 q q q q q q q q ",
"q q q q q q q 9 5 5 * 5 5 6 6 6 6 6 6 7 9 9 q q q 7 6 6 9 q G J b 7 5 5 3 5 6 6 6 9 0 q q q q q q q ",
"c q 0 q q q q q 6 5 * * 5 6 6 6 6 6 6 7 9 9 q c 9 7 6 6 9 q G J q 7 5 3 3 5 6 6 6 9 q q q q q q q q ",
"q q q q q q q 9 5 5 * * 5 6 7 6 6 6 6 6 9 9 c q 9 7 6 6 9 c F L b 6 5 5 3 5 6 8 6 8 q q q q q q q q ",
"q q q q q q q q 6 5 * 5 5 6 7 6 6 6 6 7 9 9 q q q 7 6 7 9 q F n c 7 5 3 * 5 6 6 6 9 q q q q q q q q "
};
