/* XPM */
static char *_6de71f07be943acfb86fded1725a75fSCUqzSShFJALQ6Zw[] = {
/* columns rows colors chars-per-pixel */
"50 50 210 2 ",
"   c #1F1F1F",
".  c #211F1F",
"X  c #17211F",
"o  c #1D201D",
"O  c #20201C",
"+  c #151C22",
"@  c #1C1F20",
"#  c #211F21",
"$  c #2B1D25",
"%  c #221C2D",
"&  c #2D1C2A",
"*  c #351C2A",
"=  c #3D1B2C",
"-  c #2B1C36",
";  c #341C38",
":  c #3A1B3E",
">  c #0C2320",
",  c #162220",
"<  c #1C2222",
"1  c #1F2C2A",
"2  c #232323",
"3  c #292726",
"4  c #292528",
"5  c #252A2A",
"6  c #2C2C2C",
"7  c #34262E",
"8  c #28322E",
"9  c #202430",
"0  c #3A2637",
"q  c #342D31",
"w  c #2C3330",
"e  c #2D323A",
"r  c #333333",
"t  c #3A3536",
"y  c #34373C",
"u  c #3E343C",
"i  c #343C3D",
"p  c #3B3B3B",
"a  c #561928",
"s  c #4D1839",
"d  c #541231",
"f  c #57123F",
"g  c #5D123E",
"h  c #7A0E2D",
"j  c #65142D",
"k  c #68182B",
"l  c #761625",
"z  c #7D1027",
"x  c #731929",
"c  c #6D0F3A",
"v  c #740E37",
"b  c #7C0D34",
"n  c #710738",
"m  c #720F38",
"M  c #6A1A33",
"N  c #64113B",
"B  c #7A1633",
"V  c #741D35",
"C  c #7A1C31",
"Z  c #44252E",
"A  c #52262B",
"S  c #483E2D",
"D  c #533D2E",
"F  c #462B38",
"G  c #5A283A",
"H  c #5C2C3C",
"J  c #43353D",
"K  c #4A333C",
"L  c #423B3D",
"P  c #573639",
"I  c #7A2728",
"U  c #6A2A36",
"Y  c #632C3B",
"T  c #7A2234",
"R  c #762539",
"E  c #663936",
"W  c #793135",
"Q  c #3C403D",
"!  c #76421C",
"~  c #704A2C",
"^  c #1E1B51",
"/  c #25174F",
"(  c #2E174C",
")  c #25194F",
"_  c #2C194D",
"`  c #3A1746",
"'  c #371A44",
"]  c #3C1B44",
"[  c #34164B",
"{  c #3A1649",
"}  c #33184A",
"|  c #301751",
" . c #2E2043",
".. c #362645",
"X. c #3C2646",
"o. c #3A3844",
"O. c #441545",
"+. c #461746",
"@. c #4C1444",
"#. c #541341",
"$. c #5E1B46",
"%. c #6F0C43",
"&. c #741B47",
"*. c #422247",
"=. c #462947",
"-. c #502F43",
";. c #463542",
":. c #453E43",
">. c #4A3548",
",. c #543741",
"<. c #6E224A",
"1. c #354141",
"2. c #3D4444",
"3. c #3E4945",
"4. c #39464A",
"5. c #444444",
"6. c #4A4345",
"7. c #444946",
"8. c #454649",
"9. c #4D4D4C",
"0. c #4F4F50",
"q. c #534650",
"w. c #545454",
"e. c #585858",
"r. c #BD031E",
"t. c #A63B1D",
"y. c #BC3A1C",
"u. c #8A0F27",
"i. c #850E2F",
"p. c #8D0B2F",
"a. c #94042D",
"s. c #9D072A",
"d. c #940A2D",
"f. c #9B092B",
"g. c #841D2F",
"h. c #8D1A2F",
"j. c #95132B",
"k. c #830C32",
"l. c #890B30",
"z. c #831432",
"x. c #841531",
"c. c #97173C",
"v. c #AC0626",
"b. c #A40C27",
"n. c #AB0B25",
"m. c #A3072A",
"M. c #A80728",
"N. c #A30929",
"B. c #B40524",
"V. c #BB0422",
"C. c #B30C24",
"Z. c #BD0B22",
"A. c #A21128",
"S. c #B51B22",
"D. c #AF1030",
"F. c #892C29",
"G. c #9C2320",
"H. c #86392D",
"J. c #9D3926",
"K. c #A72824",
"L. c #B32421",
"P. c #B23221",
"I. c #C5031F",
"U. c #CB021D",
"Y. c #C80F1E",
"T. c #DF0017",
"R. c #D4011B",
"E. c #DE0018",
"W. c #D60A19",
"Q. c #C5121E",
"!. c #CF161E",
"~. c #C81B1C",
"^. c #D41918",
"/. c #EC1A0F",
"(. c #E20017",
"). c #EA0015",
"_. c #E70915",
"`. c #E00018",
"'. c #F60212",
"]. c #EA1C12",
"[. c #CC211C",
"{. c #D62816",
"}. c #CE3B17",
"|. c #C8341A",
" X c #F3390C",
".X c #E72B11",
"XX c #C10321",
"oX c #904E1B",
"OX c #AD451E",
"+X c #BB581A",
"@X c #AB641E",
"#X c #B26019",
"$X c #975322",
"%X c #A54321",
"&X c #CE4814",
"*X c #DC4812",
"=X c #C25717",
"-X c #D25313",
";X c #ED4A0B",
":X c #F6450A",
">X c #EB560C",
",X c #E44010",
"<X c #C7750F",
"1X c #DD780B",
"2X c #D16511",
"3X c #ED630A",
"4X c #F27F06",
"5X c #FF8301",
"6X c #FF9500",
"7X c #FFA300",
/* pixels */
"5.5.6.7.p 6 3 O . 2 r p p p p p p p p p 5.5.7.5.5.p p p p Q 5.5.5.5.r 3 2     2 4 w 6 6 r i p p p p ",
"8.5.6.7.p 6 3 O o 2 r p p p p p p p p :.L 5.5.7.5.p p p p L L 5.5.5.r 3 2     2 6 6 6 w w t p p p p ",
"8.5.8.7.p 6 3 o   2 r p p p p p p p p Q 5.5.8.8.5.p p p p Q 5.5.7.5.r 4 <     3 6 6 6 r r t p p p p ",
"5.5.6.8.p w < +   2 r p p p p p p p u :.5.5.6.5.5.p p p p u :.5.5.5.r 4 2     2 6 6 6 6 r t p p p p ",
"5.7.6.7.p 5 k I , 2 r p p p p p p i F :.5.5.5.5.5.p p p Q P P 7.5.5.r 3 2   o 2 6 6 6 6 r i p p p p ",
"5.5.5.5.i k r.~.G.# w p p p p p p i F.P 2.5.7.7.5.p i p i E Y 7.5.5.r 3 2     3 6 6 6 w r t p p p p ",
"5.L 5.o.C {.}.F.l j Z r r t r t p p K.Y o.Q 2.L p t t t e $XE 3.5.5.r 3 2   < 3 r r r r r r r r r r ",
"p Q p J I.:X*X}.t.M.Z w w r r t p i J.I i Q p L t r 6 w r =XE 3.5.2.r 3 2   o 3 t t t t r r 6 r r 6 ",
"p L Q J R.XXXXV.V.h 4 6 6 w r r p i #Xy.y L X.*.O.: 0 6 S *XG 7.5.5.r 4 <   2 4 t p t i t q 6 6 6 6 ",
"p p Q G U.v.R.XXv 2 4 6 6 6 w t p i ~ ;Xg ( { } _ } [  .J.r.u 7.6.5.r 3 2   o 4 i p p t r w 6 6 6 6 ",
"p p Q G E.I.XXa $ o 4 w 6 6 w t i i P 3XW.@.} } } } _ R '.s.o.5.5.7.r 4 2     4 t p p t r w 6 6 6 6 ",
"r r 8 A R.XXh > .   3 3 3 6 3 9 D OXE.y.^.V.{ | } _ N (.XXc [ 0 t r 6 2 <     3 w r r r 6 4 3 3 4 3 ",
"2 2 < N (.(.d @ . . o O o + 4 oX4X].).M.B V.XXb } l.M.M.N O.[ [ { 7 4     . @ 2 2 2 2 2 2 2 < . 2 2 ",
". . @ O.V.p.| - o , X X 3 ! 1X7X:XR.).B.K._. XE.f.I.v.d.b O.[ [ [ [ ' & . .   , o         . .       ",
"O   A =._ ^ @.= $ a a l &X5X5X;XE.E.(.S.J.v 2X:XR.I.v c l.c _ } [ } [ [ ' % * = & < o #   o .     < ",
"3 % <X>Xa.f.R.a 7 u.U.'.).T.T.E.E.(.E.P.@Xx.#.L.(.d.@.k.p.c g O.{ [ ) _ @.%.v d 4 2 3 3 2 3 3 3 3 2 ",
"5 ~ 3X(.).).).a 8 8 F C I.(.).(.E.E.(.Q.1X!.%.a.W.#.$.s.i.V.XXf.N O.m M.b.R t w 6 q 6 6 6 w 6 w 6 6 ",
"y %X_.T.`.E.(.U Q L 5...*.m B.R.).(.(.R.-X.X{..X{.n i.d.v.(.(.v.b m.m.g _ } 6.6.p p p Q p p P J Q p ",
"6.Y.`.`.`.`.E.Y 4.3.>.[ ( ^ ) { v I.).(.Z.,XQ.{.].r.f.d.E.(.R.l.g @.@.#.s { X.q.8.5.5.-.W =X{.c.4.5.",
"Y (.`.T.`.`.E.<.4.~ C.I.n.d.v @.( ( f.).W.{.c.&.D.&.f.v.(.E.b { O.N f.m.d.p.g >.9.8.6.b.W H.P.n.5.8.",
"h.).E.(.`.`.E.W @X6X:X(.(.).).E.I.p.f M.).K.!.c.<.c.i.B.).d.b d.N.B.XXXXZ.R.(.R 7.7.,.|.-X}.[.E.T 2.",
"A.).E.(.`.(.R.=X6X3X.XR.E.E.(.(.).).R.d.I.s.C ).U.r.#.R.m.f.r.I.XXR.E.(.(.`.).B.5.5.:.T +X[.XX(.j.1.",
"b.).E.E.`.(.R.P.>X_.(.XXR.(.E.(.E.E.U.V.l.v.{ v E.@.c M.p.U.(.(.(.(.E.E.E.E.(.E.,.7.7.G S.Q.XX(.V 1.",
"n.).E.E.(.(.XX!..X`.).R.E.(.E.E.(.R.E.E.I.B.l./ ( } p.p.V.E.E.(.E.E.E.E.E.E.E.E.B 8.6.2.z.R.v.XXJ p ",
"b.).E.E.E.(.R.E.(.E.(.V.R.(.E.(.E.(.E.E.(.(.R.k.@.s.XXR.T.E.(.E.E.`.(.`.(.XXR.E.p.6.7.3.Y B.(.A.i p ",
"b.).E.E.(.E.(.(.E.(.E.m.E.T.E.E.(.E.E.(.`.`.(.(.T.(.(.(.(.T.E.(.`.`.E.E.).XXE.(.v.;.:...z.U.E.T Q p ",
"j.).E.(.E.(.E.E.E.(.V.d.E.(.E.(.E.E.(.E.`.(.E.`.(.E.T.E.E.E.T.E.`.`.E.(.E.XX).(.f.b.d./ c '.U.J i p ",
"x (.E.E.E.E.(.E.(.R.f.f.R.(.E.E.`.`.`.`.E.E.(.E.T.T.E.(.(.(.E.(.`.`.E.E.R.XX(.XXI.).r.} [ d.c i p p ",
"A E.T.T.(.E.E.(.R.v.d.N XX(.E.(.`.`.`.`.`.`.`.`.`.`.`.E.E.E.(.E.E.(.E.(.E.v.V.XX(.(.V.c { ) ] L p p ",
"6 I.(.T.E.E.(.E.M.v O.( B.).E.E.E.`.`.`.`.`.`.`.`.`.`.(.(.E.(.E.(.E.E.(.E.V.E.(.(.(.n.s.p.k.B p p p ",
"5 k ).).).(.V.b @.} } | k.).E.E.E.`.`.`.`.`.E.`.`.`.(.E.(.E.(.E.E.(.(.(.XXR.(.(.(.(.n.f.f.N.k.t r r ",
"4 4 z r.v.u.7 - [ } [ ) m E.(.E.(.`.`.`.`.`.`.`.`.`.E.(.E.E.E.E.R.(.E.(.V.R.(.E.E.(.v.d.f.s.h 6 w 6 ",
"# 2 , 2 2 , 2 : [ [ [ ( N U.E.(.`.`.`.`.`.`.`.`.`.`.`.`.E.E.(.XXU.(.(.E.m.R.(.E.E.(.V.d.f.s.h 3 2 3 ",
"  @ . . . . # ` } [ } } O.R.E.T.E.`.`.`.`.`.`.`.`.`.`.`.(.E.(.B.R.E.(.V.d.(.(.T.(.(.I.f.f.N.j ,     ",
"  o . . @ @ @ } [ } [ } } V.(.T.(.E.`.`.`.`.`.`.`.`.E.(.E.(.E.M.R.T.(.d.g T.E.T.E.E.(.M.d.f.=       ",
"4 6 4 4 3 2 # } [ } [ [ ) d.).T.E.`.`.`.`.`.`.`.`.E.(.E.(.(.XXC.R.R.R.v ) f.).E.(.E.(.I.f.i.6 4 6 6 ",
"t i p t w 3 4 } [ } } { _ c (.E.(.E.(.`.E.(.E.(.`.E.E.(.E.(.V.V.U.I.r.f _ O.XX(.(.(.).I.s.H 3.:.5.:.",
"Q L L 5.t 5 * [ } } } } } { R.(.E.E.E.E.(.E.(.(.`.`.E.(.R.E.v.V.B.r.m.} } _ g V.R.U.XXM.B 9.9.9.9.9.",
"5.5.5.5.p 6 ; [ } [ } [ } ( M.).E.E.E.(.E.E.E.E.(.E.(.E.U.XXB.V.v.V.m ( } [ } #.d.N.f.k.>.w.e.e.w.e.",
"5.7.5.5.p 6 ` [ } } } } } _ m (.E.(.E.E.(.E.(.E.E.E.(.R.XXV.v.N.M.f.@._ } } } } @.N g } =.w.e.e.e.e.",
"5.5.5.8.p 0 [ [ } [ [ [ [ } { v.U.(.(.(.T.T.T.T.E.E.E.C.B.v.m.a.N.b ( } [ } } [ ( _ ( ( *.w.e.w.e.e.",
"w.w.w.w.:.{ } [ } } } } ' } ( v B.r.R.(.(.T.(.T.(.E.V.s.m.f.d.p.d.l.s ' } [ [ [ [ [ } } ] 5.9.9.9.8.",
"e.e.e.e.=.| [ [ } [ } [ [ } [ V.I.v.v.R.E.R.E.(.E.B.d.d.d.d.d.d.d.s.M 1 4 & & : ` [ [ } [ o.6.6.6.7.",
"e.e.e.q.[ } [ [ [ ` ] ......N R.(.(.E.R.U.r.R.U.B.f.d.d.d.d.f.f.f.M.k 1 #   o 2 6 0 : ` { J 7.7.5.7.",
"w.e.w.{ [ [ : & $ O w p p p p K R b.R.(.(.(.).r.f.f.s.s.N.s.m.s.d.z.0 5 O # @ 2 6 6 6 6 0 ;.5.5.5.5.",
"0.0.=.{ =.q 3     3 6 t y t t i Q 1.L Y g.A.C.M.d.d.d.x.i.B R Y ,.5.r 3 2   . 4 6 6 6 r t p 5.2.5.6.",
"8.:.=.5.p 6 2 # . 2 w r r r r t t t t i 1.2.p :.J u t t p p 2.7.7.5.r 3 2     2 6 6 6 6 r p Q L 5.p ",
"L Q Q L i 4 2     2 4 6 6 6 6 w 6 w w r t t p p i r 6 w w t p 5.5.5.r 5 2     3 6 6 6 w r p p p p p ",
"p p p p t 6 2 < o 2 4 6 6 6 6 6 6 6 6 r t p p p t 6 6 6 r t p 5.5.5.r 3 2     2 6 w 6 6 r p p p p p ",
"Q p p p r 4 2 O @ 2 5 6 6 6 6 6 6 6 6 r t i p p t 6 6 6 6 r p 7.5.5.r 3 2     2 4 6 6 w r t p p p p "
};
