/* XPM */
static char *_c255711c2a14533a2a70a79d6ffd04079N58f99BRu20Woj[] = {
/* columns rows colors chars-per-pixel */
"50 50 186 2 ",
"   c #1F1F1F",
".  c #1F201E",
"X  c #21211E",
"o  c #1E1E20",
"O  c #1A1529",
"+  c #211F22",
"@  c #221E29",
"#  c #291D36",
"$  c #301F3D",
"%  c #232323",
"&  c #272925",
"*  c #292926",
"=  c #252529",
"-  c #2C2C2C",
";  c #352C2E",
":  c #2F312E",
">  c #2B2335",
",  c #2F2C30",
"<  c #2C2438",
"1  c #322738",
"2  c #322B3B",
"3  c #343434",
"4  c #363539",
"5  c #3C3C3C",
"6  c #41363A",
"7  c #3F413D",
"8  c #41423F",
"9  c #776830",
"0  c #301647",
"q  c #311A43",
"w  c #33174B",
"e  c #35194C",
"r  c #391C4F",
"t  c #371651",
"y  c #3B1A54",
"u  c #3E1B59",
"i  c #392746",
"p  c #3A2E44",
"a  c #39244A",
"s  c #3E2B4D",
"d  c #3D3C43",
"f  c #3A3348",
"g  c #3F2454",
"h  c #421D5D",
"j  c #453B47",
"k  c #423D44",
"l  c #42354C",
"z  c #422457",
"x  c #482D5B",
"c  c #4B3856",
"v  c #533D5F",
"b  c #451D61",
"n  c #491F65",
"m  c #4B1F69",
"M  c #511F73",
"N  c #4B2166",
"B  c #4B2A61",
"V  c #4D216A",
"C  c #51226F",
"Z  c #4F3560",
"A  c #543266",
"S  c #542373",
"D  c #582C72",
"F  c #582578",
"G  c #5B267C",
"H  c #3F4142",
"J  c #474245",
"K  c #444444",
"L  c #464845",
"P  c #494946",
"I  c #4B4B4B",
"U  c #534747",
"Y  c #4E4555",
"T  c #545454",
"R  c #585858",
"E  c #665E43",
"W  c #68644A",
"Q  c #6E6853",
"!  c #6E417C",
"~  c #7C557F",
"^  c #7F5B7D",
"/  c #7B636D",
"(  c #84732D",
")  c #807A42",
"_  c #805D7C",
"`  c #87746E",
"'  c #8C7C6E",
"]  c #866E74",
"[  c #826379",
"{  c #846878",
"}  c #897471",
"|  c #7E8152",
" . c #B79D1A",
".. c #91872F",
"X. c #A89424",
"o. c #B7AF28",
"O. c #C8B41B",
"+. c #C6BE33",
"@. c #BDCC3C",
"#. c #BAD63F",
"$. c #BCDB3C",
"%. c #BBE13E",
"&. c #DCC813",
"*. c #DDD51A",
"=. c #DCDD1D",
"-. c #EDDB0F",
";. c #E6DA14",
":. c #E1DB1B",
">. c #DEE11C",
",. c #FAE502",
"<. c #F4E80A",
"1. c #FFF202",
"2. c #FBF109",
"3. c #E5E115",
"4. c #EBE616",
"5. c #F1EB16",
"6. c #CBCB27",
"7. c #D5C823",
"8. c #D9CD22",
"9. c #CFD42A",
"0. c #CDDD2C",
"q. c #D7DD23",
"w. c #D9DE21",
"e. c #D2D628",
"r. c #C4C535",
"t. c #C3D835",
"y. c #C4DA35",
"u. c #C0D13A",
"i. c #D5E127",
"p. c #CCE332",
"a. c #858D4F",
"s. c #9D974C",
"d. c #9A9E5F",
"f. c #9EB54D",
"g. c #9DAD54",
"h. c #9CA45D",
"j. c #9FAB59",
"k. c #ACB84D",
"l. c #B7BA43",
"z. c #A0AF57",
"x. c #A0AE58",
"c. c #A2B456",
"v. c #A5BC52",
"b. c #A4B558",
"n. c #8F836B",
"m. c #938D66",
"M. c #91866A",
"N. c #92896A",
"B. c #959464",
"V. c #999B61",
"C. c #A7C24F",
"Z. c #A9C54E",
"A. c #ACCC4B",
"S. c #B4C647",
"D. c #B1CB45",
"F. c #AFD546",
"G. c #AED249",
"H. c #B0D647",
"J. c #B2DA45",
"K. c #B4D549",
"L. c #A7C150",
"P. c #A9C251",
"I. c #B0CE51",
"U. c #B5E242",
"Y. c #BAE348",
"T. c #5F2681",
"R. c #602783",
"E. c #632885",
"W. c #66278C",
"Q. c #66298A",
"!. c #692A8D",
"~. c #6C3389",
"^. c #70348E",
"/. c #733C8B",
"(. c #6A2594",
"). c #6D2B92",
"_. c #6F289A",
"`. c #712E96",
"'. c #6E3090",
"]. c #753A90",
"[. c #774686",
"{. c #784785",
"}. c #794B84",
"|. c #764289",
" X c #7B5281",
".X c #815882",
/* pixels */
"L L K I 5 - = +   % 3 5 5 5 5 5 5 5 5 5 K K K L K 5 4 5 5 d K K L K 3 = X     % - - - : : 5 6 5 5 5 ",
"L K K K 5 - =     % 3 5 5 4 5 5 5 5 5 8 H K K L K 5 5 5 5 5 K K K K 3 = X   X = - - - - : 5 5 5 5 5 ",
"K K K I 5 - % X   % 3 5 5 4 5 5 5 5 5 7 K K K K K 5 5 5 5 5 7 L L k 3 * %     % - - : 3 3 4 5 5 5 5 ",
"K J K K 5 - = %   % 3 5 5 5 5 5 5 5 5 5 K K K K K 5 5 5 5 5 K K L k 3 * %     % - - - - : 4 5 5 4 5 ",
"K J L L 5 - = X   % 3 5 5 5 5 5 5 5 5 H K K K K k 5 5 5 5 7 K K K K 3 * X     = - - - - 3 4 5 5 5 5 ",
"K K K L 5 * = X   % - 5 5 5 5 5 5 5 4 f i s g r r r e r i p d L L K 3 = %     % - : : : 3 4 5 5 5 5 ",
"K k K 8 4 - % X   % - 3 3 3 3 4 2 K W | h.` ~ ~.M e y n h w w a l 8 3 * %     = 3 3 3 3 3 3 3 3 3 3 ",
"5 5 5 5 4 * % X % % * 3 : : > d ..D.K.I.G.U.g.|.~.F V t u y e 0 w r 1 * %   + * 3 4 4 4 3 : : 3 : : ",
"5 5 5 5 3 * % % .   * - - > ( =.i.G.J.A.A.A.x.n.^._.Q.n n n h w w w w q % X + * 3 5 4 5 4 : : - - - ",
"5 5 5 5 4 * %     % * - < o.1.>.u.H.J.F.h.j.A.C.[.|.).E.G V n y e w 0 e q @ + * 5 5 5 4 3 : - - - - ",
"5 5 5 5 4 * %     X = 4 o.4.;.S.k.S.F.G.L.Z.J.c.} _ ^.).!.V V n w h y 0 e w @ * 5 5 5 4 3 : - - - - ",
": 3 3 3 - = %   X   # O.2.=.0.$.#.K.A.c.J.A.J.P.h.~ {.).).Q.V h h m y w w e 0 * : : 3 - - - = = * * ",
"% % % % % % %   X O  .4.=.>.>.y.$.J.H.J.H.Z.H.U.v.m. X^.).`.G y h w r y 0 w e q X X % % % X % + % % ",
"  o           X O 9 5.9.<.>.q.e.t.F.G.A.J.v.P.P.A.N._ !.).).R.n y n b h r e w e # X                 ",
"% X . X + X X   ; -.%.q.7.0.y.0.y.U.A.h.H.J.H.G.J.z.} /.(.`.F n C S m C n w w w e @ X X X X X   + X ",
"% = = % = % * O ..-.6.;.H.J.@.y.J.j.v.H.H.J.G.h.G.v.~ ~ ~ (.F G G n b h m y e w e $ % * = % = = = % ",
": , : , - - : 2 6.:.-.>.#.=.=.K.J.x.L.U.H.J.G.Z.J.j.}. X/.).).n S m n n y y w e w e - - , , - 3 : : ",
"5 5 5 5 5 7 p 9 ,.,.,.=.0.4.w.C.H.J.F.G.J.G.J.J.G.M.{  X[.).).T.G h w m C m w w e w p 8 5 5 5 5 5 d ",
"K L L L K L f X.1.,.,.3.>.q.0.J.H.J.P.B.G.J.H.J.v.B.B.' { '.).).C r r V R.F n r w e l L I K K K L L ",
"L K L L K K j &.7.<.8.4.3.q.$.F.U.L.v.A.F.J.H.J.G.m.m.{ ' /.).).W.y w h R.S n h e 0 y J K K K L K K ",
"K L K K K K d 7.;.3.:.3.q.0.$.H.G.B.c.J.G.H.H.J.A.j. X[ ^ ^.).).).S h b F R.m n y y e K L K L K K K ",
"d H 5 d K H U *.<.:.>.9.K.y.0.G.A.c.A.G.A.J.J.H.J.} ).] [ '.).).!.W.S S S E.G m h m y K K k 8 8 d K ",
"5 5 5 7 K d W 9.+.>.0.y.K.H.J.P.G.J.G.F.J.H.A.J.J.n./.j.V.'.).).).`.E.E.R.!.b b h e r k K d 5 5 5 5 ",
"5 5 5 5 6 5 E r.l.0.:.i.J.J.J.J.J.H.A.F.J.B.c.v.U.V.^ B.B.[.).).).).`.E.Q.G F h w w w k 7 5 5 5 5 5 ",
"5 5 5 5 5 H U q.=.q.u.D.J.J.J.G.F.J.J.J.H.c.d.h.U.c.h.' ] }.).!.).).!.E.).S F n h w e k 8 5 5 5 5 5 ",
"5 5 5 5 5 H k 6.u.#.J.A.F.J.J.G.H.F.F.H.H.J.G.H.H.G.v.h.B._ /.).).`.Q.R.Q.S h h C y r K 8 5 5 5 5 5 ",
"3 3 3 3 3 3 2 s.S.#.F.A.G.J.H.J.H.J.J.H.J.H.J.H.J.P.h.h._ _ _ (.).).!.S F F S S R.y r d 8 5 5 5 5 5 ",
"- - - - : : # ) p.H.H.J.H.H.J.J.J.G.F.J.H.H.H.J.A.c.B.B.}.).).`.).!.).E.E.F h C n t i 5 5 5 5 5 5 5 ",
"- - - - - - * U P.F.j.v.J.J.b.j.v.V.h.A.J.H.J.x.v.d.d.[ _ `.!.`.).!.!.F h y V n h y p 5 5 5 5 5 5 5 ",
"- - - - - - - $ g.v.j.b.L.L.b.G.G.G.G.v.J.H.' N.c.z.B.' M.!.`.!.).).G C S S C n t y 5 5 5 5 5 4 5 5 ",
"- * * * * * - @ W I.j.L.j.L.G.J.J.H.H.J.A.{ M.x.m.~ _ B.[ (.!.`.`.E.S G G V C V h i 3 4 4 3 3 4 3 4 ",
"= * = * = = * % < f.A.x.L.J.J.H.H.H.H.G.h.d.c.m.x.m.N.{ ^.!.`.!.!.`.S G F S m n h , : - - : : - - - ",
"% %   %   % % % o j G.J.A.G.H.H.F.H.F.H.Z.L.G.j.V.M.n.[.[.).).).).).!.Q.F V b M $ X % = = % % % % % ",
"+               X O Q J.J.J.J.H.J.F.U.F.z.B.V.L.m.] { ^ |.).).).).).Q.S M b m g . o . o       X     ",
"o o             X . O a.Y.G.A.J.G.F.h.c.b.L.n.' } } }  X).!.).).).!.F F V b y     o o o   %         ",
"* * * * & %       % % # a.Y.Z.A.F.v.h.A.J.c.d.} [. X X'.).'.).).).).Q.C b q % % & * * - * - - - - , ",
"4 5 5 3 3 * % % o % - : > Q b.P.c.G.j.} v.h.N.' { ).(.).).).).).).).T.b q o   * 4 4 4 4 5 k K K K K ",
"k 5 6 d 4 - %   . % : 3 3 2 c / .Xm.j.d.L.c.Z.N.[.'.).).).).).).).T.b $ % o   - 5 8 5 K L I I I I I ",
"L K K K 5 - %   o % 3 5 5 K 5 l A E.{.M.V.B.m.]  X|.).).).).).).F z 4 &       - 8 K K L I T R R T R ",
"K L L K 5 - % %   % : 5 5 6 L I R Y Z D !  X].).).).W.W.!.(.G B j H 3 * %     , K P K I I T R R R R ",
"K K L L 5 - % %   % 3 5 5 5 H I T R T I l x A F V N B A v c K K L K 3 * %     - 5 K 8 L I T T T R R ",
"T T T T K : =     % 3 5 5 5 5 K I I I I P K H K L I I I L P I L L k 3 * %     * 3 4 4 5 5 L I I I I ",
"R R T R P 3 * X   % 3 5 5 5 5 K K L K L L J K J K K K K K K L K L k 3 * %     % * - - - 4 H K L K K ",
"R T R R I 3 = %   % 3 5 5 5 5 5 K K L L L K K I I K K I K K L K K K 3 = %     = - - : 3 4 k K J L L ",
"T T T R L 3 * +   % : 5 5 4 7 8 K K K K K L K K K K K K K K K K L k 3 = %     % - , - : 3 8 K K K K ",
"T Y I T K : % +   % : 4 4 4 4 5 7 8 5 5 k 5 K K K d 5 5 d 7 K K K K 3 & %     % - - - , 3 8 K K K K ",
"I I P P 5 - = X   % - 3 3 3 3 3 4 4 3 5 5 5 5 K 5 5 4 3 5 5 H L K K 3 & %   . % - - - 3 3 5 5 8 8 6 ",
"5 5 5 5 4 * %     + * : - - - : : - : 4 3 5 5 5 5 3 - : 3 4 5 L K K 3 * %   . = - - * - 3 5 5 5 5 5 ",
"5 5 5 5 3 * % o   % = - - - - - - - - 3 4 5 5 5 4 : - - : 3 6 L L k 3 = %     % - - - - 3 5 5 5 5 5 ",
"5 5 5 5 3 * % + o % * - - - , - : - - 3 4 4 5 5 3 : - - : 3 5 K K K 3 & %     = * - - 3 : 4 5 5 5 5 "
};
