/* XPM */
static char *_2d6dbff7b244793f35e4110b6e18ac2GCxy63E3oRdNBA9Q[] = {
/* columns rows colors chars-per-pixel */
"50 50 62 1 ",
"  c #151515",
". c #1E1E1E",
"X c #232323",
"o c #2D2D2D",
"O c #333333",
"+ c #3C3C3C",
"@ c #403F40",
"# c #444444",
"$ c #484747",
"% c #4C4C4C",
"& c #504F50",
"* c #545454",
"= c #595959",
"- c #605F60",
"; c #646464",
": c #6C6C6C",
"> c #737373",
", c #7C7B7C",
"< c #848284",
"1 c #8C8B8C",
"2 c #908E90",
"3 c #959495",
"4 c #989798",
"5 c #9C9B9C",
"6 c #A09FA0",
"7 c #A4A3A4",
"8 c #A8A7A8",
"9 c #ADACAD",
"0 c #B1AFB1",
"q c #B4B3B4",
"w c #B9B7B9",
"e c #BBBABB",
"r c #E38692",
"t c #E88795",
"y c #E58995",
"u c #EAA8B2",
"i c #E5AFB8",
"p c #C4C2C4",
"a c #CAC7C9",
"s c #CECCCD",
"d c #D1CFD1",
"f c #D4D2D4",
"g c #D7D7D9",
"h c #D8D6D8",
"j c #D6DBDC",
"k c #DCDBDD",
"l c #EBC4CA",
"z c #E7D8DC",
"x c #ECDBDE",
"c c #E1DFE1",
"v c #E5E3E5",
"b c #EBE4E7",
"n c #E9E7E9",
"m c #E3E9E9",
"M c #ECEAEC",
"N c #F2EDEF",
"B c #F1EEF1",
"V c #F4F2F4",
"C c #F8F5F7",
"Z c #F8F6F8",
"A c #F7F8FA",
"S c #FDFDFD",
/* pixels */
"$$#$##$@oX. O%$#+O++#####++++@#$@oX..XooOOO+++++++",
"#$$####@oXO3dvvf0,$O+##$#++++###+oXXXXoooOO+++++++",
"$#$$###@oOwCNMMNVNd<+@$$#++++@##+OX..Xoooo++++++++",
"#$#####@X3CnnMMMmmNB0%@$#++++@#$@oXX.XoooO++++++++",
"####$#%+%kMnMMMMMMnnVe%##+++@@#$@oX..XooOO++O+++++",
"$#$####O<VnMMMMMMMMnnV7##++++@##+oX..Xoooo++++++++",
"$###$#$+wVnnMMMMknMMMnB<+++++@##+OX..XoooOO+++++++",
"######@$kMMVMMnS,,ZMMnMc=O+++@@%+OX..oooOO+OO++O+O",
"+@@++@+;mMmwMMnS6 fBbMmVqOOO++@#+OX..XO+OOOOOOOOOO",
"+++++@o<VMMX7CmBV+8ZMMnnM>XoO+#$+OX..o+O+Ooooooooo",
"+++++@o3CmS&OCMnZkaxmcNMMd+oO+##@oX.Xo+++Ooooooooo",
"++++++O7CvSd$vMnMNtug5hMmZ6XO+#$+OX..o+++OOooooOoo",
"oooooOX6CmMSmmMMMzibg,qMMMN;.oOOOXXX.XOoooXXXXoXXX",
".XX..X 4CnmllbMMMMBV5pVMMMNsO.X..X..X..XX..X.....X",
"...X.X 4CMxyrxMMnMC88VnMMMmV4 .X...X....X.X.X..XX.",
"XXXXXX.4CnMMbMMMMB95MMMnMMMMm=.XXXXXXXXXXXXXXXXXXX",
"ooooooX3AnMMNBVBg58VMMMMMMMnNpoXoooOOooooooooooooo",
"+++@+@o5AnMMcaw65aNMMMMMMMMMnV3o+#$%%#+++@++++++++",
"$#$#%$+5CnMNg7qfMBMMMMMMMMMMMMn=+%*==&$$$$#$#$#$$#",
"$####$O3CnMMMAVBMnMMMMMMMMMMMnVw+%***%######$##$##",
"@@@#@#O2VnMMMnMnMMMMMMMMMMMMMMMn>#%*&%$####@@##@##",
"@++++@O<VnMMMMMMMMMMMMMMMMMMMMMMs&$$$$####@+++++++",
"+++++@o,BMMMMNMMMMMMMMMMMMMMMMMnV4+$#$###@@+++++++",
"+++++@O,NnnMMMMNMMMMMMMMMMMMMMMMMM>@$#$##@++++++++",
"++++O+o>BmMMMMMMMMMMMMMMMMMMMMMMnNk-+#####++++++++",
"oooooOX-MMMMMMMMMMMMMMMMMMMMMMMMMnNf%o@+++++++++++",
"ooooooX=nMMnMMMMBMMMMMBMMMMNMMMMMMmVs=O+++++++++++",
"ooooooX*nMMMMMMMMMMMBMMMMMMMMMMMMnMnBc1#OO++++++++",
"ooXoooX*nMMMMMMBMMMMMMMMMBMMMMMMMMMMnNVp,$OXXoooXX",
"XXXXXX.&nMMMMMMMMMMMMMMMMMMMMNMMMMMnMnnNBkw3,>;:><",
".X.XXX &MMMMMMMMMMMBBMMMMMMMMMMMMMMMMMMnmNVCCBMVB3",
".....X *MMMMMMMMMMMMMMMMMMMMMBMMMnMMMMMMnMmMmmVs- ",
"XXXXXo.;BmMMMMMMMMNMMMMMMMMMMMMMMMMnMMMMMMnMNB8@.o",
"O+O+O+o,VmMnMMMMMMMMMMMNMMBMMMMMMMMMnnnMMMBBh<++##",
"@@@@@@O3ZMMMMMMMMMMMNMMMMMMMMMMnMMnMVVBMmka5-#&*%&",
"$#$$$$@qVMMMMMMMMMNMMMMMMMMMMMMMMnVc042,:;*&*==**=",
"######*jBMMMMMMMMMMMMNMMMMMMMMMMnB7+.o++@$*=======",
"%&%%&#<MMMMMMMMMMMMMMMMMMMMMMMMnVeX .o+++#$&&&%%&%",
"==*==*qBMMMMMMMMMMMMMnMMMMMmMMMMB,.X.oooo+@$#$$#$$",
"====&>mmMMMMMMMBMMMMMnnnMMMMMMMMn= X.XoooO@$##$###",
"****%0NnMMMMMMMMMMMnMBVVBnMMMnMMj$.XXXooo+@#######",
"%%&$>MMMnMMMMMMMMMMNmp89anVMnnmNa+X..XoooO+@@@@##@",
"@#+#pVMMMMMMMMMMMMBf:+O+#;7cVVBA6oXX.XoooO+++++@++",
"++O3VMMMnMMMMMMMMMk&X++++Xo*<0p0&oX.XXoooO++++++++",
"+O:MMnMMVMnMMMMnnV4.O++++ooooO##+oXX.XoooO++++++++",
"+%sMMVnp6dNnMMMMMn=oOO+++oooO+#$+oX.XXoooo++++++++",
"+0AVcq>+X#aVvMnvVeOoOO+++oooo+##@oXX.XoooOO+++++++",
"4Mp2=+OOo.#dAVVVM;Xoo++++oooO+#$@oX..XoooO++++++++",
":*+OO+@OoX +2qe9;oooO+++OoooO+##+oXX.XoooO++++++++",
"OO++++++o.X  oooXoooOO+++oooO+##@oX..XoooO++++++++"
};
