/* XPM */
static char *dd942a304a0f47f29b6bc651b6a13967V1cpBBn8aWZGCJZu[] = {
/* columns rows colors chars-per-pixel */
"50 50 16 1 ",
"  c #1E1E1E",
". c gray13",
"X c gray14",
"o c gray17",
"O c #2D2D2D",
"+ c gray19",
"@ c gray21",
"# c gray23",
"$ c gray24",
"% c #434343",
"& c #464646",
"* c #484848",
"= c #4C4C4C",
"- c #505050",
"; c #565656",
": c #5A5A5A",
/* pixels */
"&&&&&%&$OX. O###$###$&&&%$##$$&&$OX. XOOO+#$##$#$#",
"&&&&&&&$OX..o#$##$##$%&&%$#$$%%&$OX..XoOO+#####$#$",
"&&&&&&&$+X. O#$#$###$&&&%$##$%%&%OX  XOO++@###$#$#",
"&&&&&&*$O.. o####$##$%&&&$##$$&&$OX .XOOO+@$###$#$",
"&&&%%%&$OX..O#$##$##$%%&&$##$%%&$OX..XoOO+@#######",
"%%&&&&&$+X. o#######$%&&%$#$$$%&$OX. XOO++########",
"&&&&&&&$OX. O###$###%%%&%$##$%&&%OX  XOO++##$###$#",
"%%%%%%&$O.. O@#@####$%%%%#@##$%&$OX..XOO++@#@##@@#",
"$$$$$$%#oX. o++@@@$#$$$$$@@+@#%&$OX. o@@@+@++@+++@",
"$#$$#$#@o. .XO+++###$$$##OOO@#&&$OX. o@##@+OOO+OOO",
"##$###$@oX. XOoO+######$#OOO+#%&%OX  O#$#@+OOOOOOo",
"$#$##$#@o.. XOOO+#$#$#$$#OOO+#%&$OX. O##@@OOOOOOOO",
"OOOO+OOoX.. .XXooOOOOOOOooXXoO@++XX..XOOOOXoXoXXXX",
".. ...... . ...   ... .. .. . .. ..  ....      ...",
"  .. .   . . . . . ......  . . ..  .. .  ..... . .",
"XX.XXXXXXXXXXXXXXXXXXXXX... ....XXXXXXXXXXX.XXXXXX",
"oOooOoOoOoOoO@@++@++@++@OX ..XoooO++@+OOoOoOooOoOo",
"$$$$$$$$$$$#&***=**=**==%o .Xo@+#%***%$$$$$$$$$$$$",
"&&&&&&&&&&&&=:;:;::::;::=O .XO##$=;::-&&&&&&&&&&&&",
"&&&%&&&&&&&&=;;:;;;;;;;:=O .XO##%=-;;=&&&%&&&%&%&&",
"%%$%%%$%%%&&*=**=-------*X .X+##$*=--*&&%%%%$%%%$%",
"#$$$$$$$%%&%%%&%&*******&o .X+#$$%***&%&%%$$$$$$$$",
"#######$%%&&%$$$$%&&*&&*%X..XO##$%&&*&&%&%$#######",
"#$###$##%%&&$###$&&&&&&*%X .XO##$%&&&&&&%%$#$#$#$#",
"####@###$%%%$##$$%%%%%%&$X..XO@##$%%%%%&%%##$#$##$",
"OO+OO+OO++++@####$$#@@+++X ..oOOO++++@$##$########",
"OoOoOoOoOoOo+#######@OOoo.  XXOOOoOOO@#######$####",
"oOoOoOoOoOoO@#######@+Ooo. ..XoooOoOO+############",
"oooooooXooooO@@@@@@+OOooo. ..XooooXoo+@@@@@+@@+@@@",
"XX.XXXXXXX.XXooOoooOoXXX. . ..XXXXXXXXoOooOOOoOOoo",
" . ...... . ........... .... ..... . .............",
". .    . . . . .  .  . .    . .   . .  .  . .  .  ",
"XXoXXXoX.. ..XXXXoooXoXoXooXoXoXX.....XXXooXoXooXo",
"@@@@@@@+o.. X+O@@$$%$@@@#$%%$$@@+o.. o#@@#$%%%%$%%",
"$%%$$%%$oX. o@##%*-=*&%$%==-=*%$#O.. O%$%&=--==-=-",
"&&&&&%&$OX .O##$&-:;-*&&*-:;-=&&$OX..O&&&=-::;;::;",
"&&&&&&*$OX .o##$&-::-*&&*-:;;=&&$OX. +%&*=-:;::;:;",
"=======&+X. O#$$%*==*&&%*=-==*&&%OX. o##$%*--==--=",
";:;;;;:=@X. O#$$$&&&&&&&&&&&&&%&$OX .XOOO@$&&&*&&&",
":;;::;;=+o. o###$%&&&&&&&&&&&&&&$OX. XOO+@$&&&&&&&",
"-;-;-;;*@X. O###$%%%%%%%%%%%%&&&$+...XoOO@$&&%%%%%",
"=======%+X .o+@@@$##$$%%%$$$$$&&$OX  XOoO@$%%%%%%%",
"%%%$%%%#OX. oOOO++++@#$$#+++@$%&%OX. XOOO@#$$$#$$$",
"#######@o.. .OOOOOOO+####+OO+#&&$O...XoOO+@$######",
"$#$#$##@o. .XOOOOOOO+@###+OO+$&&$OX. XOOO+#####$$#",
"#$#$##$@oX  XOOOOOoO+@##@OOO+#%&$+X .XOOO+@$##$##$",
"$#$####@o.. XoOOOOoO@@###OOO+#&&$OX..XOO++@####$$#",
"#$#$##$@oX .XOOoOOOO+####+OO+#%&%OX  XOO++####$##$",
"$#$###$@o.. XOOoOOoO+@#$#OoO+$%&$OX .XOOO+####$#$#",
"#$#$###@o. .XOOOOOOO+####OOO+#&&$OX. XOOO+#####$#$"
};
