/* XPM */
static char *_d12d588a54643c0d07457e28499aba2DdhJfdNVBWgfGGbn[] = {
/* columns rows colors chars-per-pixel */
"50 50 164 2 ",
"   c #030303",
".  c #080808",
"X  c #0C0C0C",
"o  c #110C08",
"O  c #16120D",
"+  c #1C120C",
"@  c #0E0F12",
"#  c #0F1113",
"$  c #141414",
"%  c #181513",
"&  c #161718",
"*  c #17191A",
"=  c #1D1D1D",
"-  c #2B0F00",
";  c #28180E",
":  c #2B1C12",
">  c #221E1C",
",  c #361F11",
"<  c #22211F",
"1  c #181D25",
"2  c #1E2021",
"3  c #172438",
"4  c #232323",
"5  c #2D2725",
"6  c #282827",
"7  c #2C2C2C",
"8  c #372F2A",
"9  c #31302B",
"0  c #3E332D",
"q  c #2F3030",
"w  c #333434",
"e  c #3B3532",
"r  c #3A3936",
"t  c #333639",
"y  c #3C3C3C",
"u  c #472B18",
"i  c #53301A",
"p  c #5D361D",
"a  c #483327",
"s  c #573622",
"d  c #5C3924",
"f  c #453C37",
"g  c #47453E",
"h  c #674127",
"j  c #744526",
"k  c #7B4B2C",
"l  c #644D3E",
"z  c #704C34",
"x  c #162945",
"c  c #0F2B55",
"v  c #132D54",
"b  c #3B3E40",
"n  c #133467",
"m  c #173B72",
"M  c #123C7C",
"N  c #444444",
"B  c #484745",
"V  c #484847",
"C  c #454748",
"Z  c #474849",
"A  c #4C4C4C",
"S  c #574B43",
"D  c #59514A",
"F  c #4F5050",
"G  c #535353",
"H  c #5B5753",
"J  c #575858",
"K  c #5A5A5A",
"L  c #644F41",
"P  c #795640",
"I  c #7D5B45",
"U  c #625F5B",
"Y  c #725F53",
"T  c #6E625A",
"R  c #5B5D60",
"E  c #646463",
"W  c #6B6A65",
"Q  c #6C6C6C",
"!  c #78766F",
"~  c #727272",
"^  c #7B7975",
"/  c #7C7C7C",
"(  c #814D2C",
")  c #8E5B3A",
"_  c #885C41",
"`  c #87644D",
"'  c #8F664C",
"]  c #956445",
"[  c #98684A",
"{  c #936F57",
"}  c #937A65",
"|  c #827E73",
" . c #817F7A",
".. c #A27C64",
"X. c #858176",
"o. c #8B8575",
"O. c #918C7F",
"+. c #A78D79",
"@. c #123F84",
"#. c #18488E",
"$. c #164894",
"%. c #164B9C",
"&. c #104CA7",
"*. c #1F54A4",
"=. c #1757B9",
"-. c #165CC7",
";. c #1560D1",
":. c #1764DA",
">. c #1166E7",
",. c #186BE9",
"<. c #1D7AFF",
"1. c #2173EF",
"2. c #217CFF",
"3. c #2A7FFE",
"4. c #848484",
"5. c #8C8C8C",
"6. c #9A9484",
"7. c #999586",
"8. c #949494",
"9. c #9B9B9B",
"0. c #A59F8E",
"q. c #A5A090",
"w. c #B2AD9B",
"e. c #A3A3A3",
"r. c #ABABAB",
"t. c #BBB5A3",
"y. c #B3B3B3",
"u. c #BBB7B4",
"i. c #B9B9B9",
"p. c #C2B49D",
"a. c #C2BBA7",
"s. c #C2BBA9",
"d. c #C0BDBB",
"f. c #CFC8B4",
"g. c #D5CCB5",
"h. c #D5CDB8",
"j. c #DBD3BC",
"k. c #C3C3C3",
"l. c #CACACA",
"z. c #CDCDCD",
"x. c #D7D1C0",
"c. c #DCD6C3",
"v. c #DFDBCE",
"b. c #D3D3D3",
"n. c #D9D9D9",
"m. c #DBDBDB",
"M. c #DDDDDD",
"N. c #DEDEDE",
"B. c #E6DEC5",
"V. c #E4DECA",
"C. c #F0E7CD",
"Z. c #F4ECD3",
"A. c #F6F0D9",
"S. c #FBF3DC",
"D. c #E1E1E1",
"F. c #E3E3E3",
"G. c #E5E5E5",
"H. c #E9E9E9",
"J. c #F3EEE0",
"K. c #F7F2E5",
"L. c #FFFEE6",
"P. c #FFFBEC",
"I. c #F3F3F3",
"U. c #FFFFF4",
/* pixels */
"B B C B N N C y q 4 < > 7 b y y y y y y N N N C N f y y y b C C y 7 4 < < 4 7 7 7 w r y y y y y f b ",
"C B N B N C B b q 4 < 2 5 y y y y y y y y N C B N b y b f b C V N w 6 < 4 6 7 q q w r y y t y y y y ",
"N B N C B N B b q 4 2 > 7 y b y y y y r y B N C N y y b N C y f 7 & @ X @ * 2 > < 7 t b y y y y y y ",
"C B C B N C C f 7 4 2 > 7 b y y y y y y y N N C N N y 5 > 2 4 q A K E Q U w & X   @ r y y y y y b y ",
"N C N N C C B y q 4 < < 5 y y y y y y y N N C A b > > y G / 8.9.9.r.9.G 1 & < 6 7 q r y y y y y y y ",
"N N B N N N B b q 4 < 2 7 y y y y y y y y B b 2 4 F 4.9.e.9.9.8.9.5.4 X > 7 q q q w y t y t y y t y ",
"V V N C N C C f 7 4 < 2 7 b b y y y y y N 4 > G 8.e.9.9.8.8.9.8.9.6   & # = 7 q q q r b f b f y f b ",
"N N N N N N N b q 4 2 1 5 r t r t y y q % A 8.e.9.8.9.8.8.8.8.9./ N A N B r 6 * 6 w r r t t t y t r ",
"y b f b b b f y 7 4 2 2 6 w w w e b 2 6 / e.9.8.8.8.9.r.y.i.i.l.4.J Q ~ / 4./ W r 4 w w w q w q w w ",
"y y y b y y b r 7 4 2 2 4 q 7 w w % N 9.9.8.8.e.i.z.n.n.N.N.N.H.8.A y * 6 = < w G F 4 q 7 q 7 q q 7 ",
"y y y y y y b w 5 4 > 2 6 7 q 7 & R 9.8.8.r.l.n.N.N.D.D.D.D.N.H.9.r < @ $ $ $ @ X C A 4 q 7 7 7 7 7 ",
"y y y y y y y w 7 4 2 > 4 7 7 $ Q 9.9.y.b.H.F.D.H.D.b.k.i.u.d.b.e.$ v n & & & 1 M v U 4 7 7 q q 7 7 ",
"q 7 q q 7 q q 7 4 4 2 2 4 4 & ~ 9.e.z.D.y.9.k.i.~ Z 6 , h P S Z e x >.M + % % * -.&.V 4 4 4 6 4 6 4 ",
"< < < < 2 2 < < 2 2 > 2 < O E e.d.N.N.I.r.. & & X $   p ' G G w o @.<.#.n v v m ,.=.V 2 > 1 < < 2 2 ",
"1 < < < > < 2 < 2 2 2 4 X F r.z.N.D.D.8.w & = 2 6 $ , ' e N G 4 # $.2.1.2.-.;.3.3.*.C & 4 4 < < < < ",
"4 4 4 4 4 4 4 4 4 4 5 @ r y.n.N.H.i.b @ > 6 4 6 2 o _ f   y G 4 O m 2.3.3.:.,.3.1.#.f = 4 4 4 4 4 4 ",
"7 7 7 7 7 q 7 7 7 q 6 1 r.N.N.D./ & 4 r w w q e 1 u I & # 2 F 6 # 3 -.3.<.%.=.<.@.R 6 6 q 7 7 7 7 7 ",
"f b y y b f b y b b % 5.F.D.n.H = V G Z A V V A + z 0 & 4 $ f q # % x %.%.1 x v t G 7 N b f y b y b ",
"Z Z A N N C Z N A 4 E G.D.b.N w E K J J K K R C : ` 1 1 5 & 4 b & & $ % $ % % X G r b Z C N V V Z V ",
"N C N N N N N Z r e b.G.l.r b U G G J G G G R 6 s d $ 4 6 6 & b < $ & & * $ $ 7 b w A N B N N B C C ",
"b N b N N b N N 1 r.I.z.r w G A A A F F F F G > z 8 & 4 4 q = w r # & & & & # y w N b N N b N b f N ",
"f b f y f y N 6 U k.4.b q V b N C V A V V A N ; P 2 2 < 4 w 1 q C * & & & # e N 7 V b y b f y y b b ",
"y y b y y y b 4 k.y.  q Z y y y f N C N B V y , P & 2 < 4 w & e F 4 $ & & & A 5.w y N y y y y y y y ",
"y y y y y b 7 U I.Q 9 A b y y y b N C C C B w a l 1 < 4 6 = $ N G f & & # f G E / 6 y y y y y y y y ",
"y w r y r r = k.8.= N y f b y y y N N N N B 1 s f > > & @ $ r G G A 5 @ 2 G F A  .R 4 N y y y y y y ",
"q q 7 q w 1 J i.* q w w t y y y y y y y w y & h a   $ & 4 N F A F F b & N G y A G 5.w t y y y y y y ",
"7 7 q 7 w * 9.N * w 7 7 w y y y y y y y t 7 . d D w w N F G F b F F A f G G t Z A / W 4 y y y b y y ",
"7 7 7 q < b ~ * w 7 7 7 w y r y y y y r w 6 o.p.w.h.E F F H y w J A A E A G N N G E 4.4 y y y y r t ",
"6 7 7 7 2 A 4 4 6 6 6 6 w w w w w w w r 4 g Z.U.g.K.| V J V . y G F G E A G N y G J 8.w q t e t w e ",
"4 4 4 4 > 1 = 5 4 6 6 6 6 7 7 6 7 7 7 7 4 4 6.g.0.s.o.A G & X V G G G E G G w b G G 5.7 6 7 7 7 7 7 ",
"4 < < 4 X X < < 4 = 4 = = 4 4 4 2 4 4 4 & f h.S.j.V.0.G e . 2 A G A A T C 5 e F G K 4.= < 4 < < 4 2 ",
"< 1 4 > $ 1 < < 2 = = 4 = = = 4 = = = 4 & 8 a.C.f.c.6.V $ # 4 F F W 7.w.i.4.G G V ~ E @ 2 > 2 < 2 2 ",
"4 4 6 4 6 6 6 4 4 2 2 2 < 4 4 6 6 6 6 6 6 > 6.g.t.t.| 4 = $ w G G s.L.L.U.P.W A F / q 4 5 7 6 6 4 5 ",
"r r w r e y t q 6 4 > 2 6 q q w w b N N t t j.U.A.x.f < q % y G A X.g.c.J.P. .C E G 7 C N b b N N N ",
"f b N y f b b b 7 4 2 > 7 r t y f A F F A e N } +.N # N 4 < A G F t.S.S.P.P.^ A W q A F F A F F G A ",
"Z Z N A N C V f q 4 < 2 7 y y y C G H G F F & - _ * 4 A $ w A G F O.j.V.K.L.~ K y b G J H J J J G J ",
"C C C N N V C y q 6 2 > 7 y y y V G J J F A 9 : ] 0 t w * N G F A q.Z.Z.U.A.K K 7 A G J J H J J H K ",
"A A A A A A A C q 4 < 1 7 b y y b Z A A V A y + ( L 4 * w G G G A 6.B.V.V.~ J K w y A F F F F F F A ",
"J J J J J J J A w 6 4 > 7 y y y N V V A V V N + h ` X 4 N G G G G A V < $ q J K b 7 f Z N N A C C C ",
"J J H J H J J A w 4 > > 7 y y y 6 6 7 7 N V b X i [ y w G F A G F G A $ $ C A E G 4 N N C C N N C N ",
"G G G G G G G V w 6 4 > 6 b 7 > w 6 4 5 4 Z q   , _ Y Z G F G G G G V % > F F R E < N N N N N N N N ",
"A A A A A A A N q 4 < > 7 6 4 A 6 1 1 5 2 N w @ : j { F G G F F F G A @ 7 G F R ~ > f N N N N b N b ",
"N b y N N N N y 7 4 > < 4 & A 6 & e < X 7 5 # 4 5 i ] T A G F G G G F > y G F G 4.4 y b f y b b y f ",
"b f y y y y b w 7 4 1 4 $ b Z @ q 4 . & $ $ 7 N A u ( } F F F G G A G 7 w G G F 4.b 5 b b y y y y y ",
"y b y y y y y w 7 4 2 > % F b @ 4 > @ & 4 y V G G e s [ ` Z G F F G G A e Z G V 4.Q 2 N t y f b y b ",
"y y y y y y y e 7 4 2 > & F F 5 & = 5 b F G J G G A u ( ..K A G G A G G G F G A W 5.2 t b y t y y y ",
"y y y y y y y t 6 4 2 < & = V G A F G G A b y y N G f d ) +.T A G b V G G J J G R 8.w 2 N f f b y y ",
"b y y y y b y w 7 4 > < 4 > 1 4 7 7 < = = > 1 4 > < 6 : j ] +.H w > N N y r w w 7 E / 5 q b t b y y ",
"y f y y y y f t 5 4 2 2 4 q 7 4 4 5 4 5 w b y N y 7 5 & , k k 5 1 O 1 % $ & 1 < 2 = 7 4 4 b b f b b ",
"y b y y t y b w 7 < 2 2 4 7 7 q q q q 7 w t t y r q 7 q & + > y N 7 < < < 5 q q q e r r y y y y y y "
};
