/* XPM */
static char *_cd46dee2ec2430e9945ffd85a0a0aber8Bu8zJf4ESJLomJ[] = {
/* columns rows colors chars-per-pixel */
"50 50 47 1 ",
"  c #372619",
". c #38271A",
"X c #3B291B",
"o c #412D1E",
"O c #432F20",
"+ c #463221",
"@ c #4D3626",
"# c #4F3927",
"$ c #4F3828",
"% c #503727",
"& c #503927",
"* c #523B29",
"= c #593F2D",
"- c #57412C",
"; c #5B422E",
": c #5E4431",
"> c #624633",
", c #654935",
"< c #694C37",
"1 c #6B4D38",
"2 c #6D5239",
"3 c #72523C",
"4 c #755A3E",
"5 c #775640",
"6 c #795641",
"7 c #7D5B44",
"8 c #7F6044",
"9 c #815E45",
"0 c #835F48",
"q c #826146",
"w c #866149",
"e c #8A654C",
"r c #8E694D",
"t c #916C4E",
"y c #8F6B50",
"u c #906750",
"i c #946B52",
"p c #986F54",
"a c #977054",
"s c #9B7256",
"d c #9D7459",
"f c #A07757",
"g c #A17856",
"h c #A1775A",
"j c #A47A5B",
"k c #A97E5D",
"l c #AE815F",
/* pixels */
"              .        .. .  ..  . ..    .        ",
"  ......XXXXXXXXXX.XX...XX......XXX.... ....  X   ",
"  .O++@#%&**%&**&&%#%%%$**%@@@%#%%%%%@@@@@##+++X  ",
"  o;228eettttttttrewewwettreeeeeettueeeeqeeq42:X  ",
"..+28wadjklllklllljjhhhkllkhddjhkkkkhhhhdjdsw82@  ",
"..+2qwyasfjkkkkjggsssshhjjhssssdfjjjhphpsaayw82+X ",
" .@8ayr8etpsppppaptpipippppipiiippppiiptreqqwr7@  ",
"..#8la88900000wwwww00000000wwwwwe0000000w778wy7@X ",
"..#rhse774133331515151333333333323333333570eeu7@  ",
" .#rlhiq4:%%$%%%@@@@@%%%$$$$%%%@##@@@%@%:6uiuu0@X ",
" X-rljpw3%  XXXXXoooXoXXXXXXoX  XOoXoXX $7ihui0@X ",
"  #rkdpw3%.+*;;***=:==:=**=;=+ o%,1,>=@.*7dhpu6@  ",
" X#eddiw1$X*<63112556662<<341=XO,qtew4;X*7dkpi0@X ",
" X#wjdiw3$O=6ew768euueu9449w9,+%4glkje,o*qdkpu0@X ",
" .#rldaw3@o=6e077wyiiutq44311113ejkkke1O%qskii7@X ",
" X#yldaw3@X=6e097eispriq74>%*1rpsdkklt2O%6adii7@  ",
" X*tkkp02@X:6eq88easpuu944;+#3jlkhjkki1O%7idiu9@. ",
" X*tkkpe5@o:7ae84wyaiui3;;>23wgljhhhhe,o%6idii0@. ",
" X*ilkp02%o:warq7wryiuu1@+<aasgjhhddi0>o$6idiu7@..",
" X%pkkp05%o:esr84qeyeue>oo2gljjjhddiu6:o$7aduu0@. ",
" X%ekhi01$o:9ir888ee61<<33wddgjddpu71*@X$7sjit0@. ",
" X%ehdie1$o=6uw778ee1@o3ssaitajddu7,@oX =7dkpi7@..",
" X%ehdp05@o=6uw84qee,OX3lgdiipddpu7>o X =8gkpi7@. ",
" .#qhdi01@o=4eq742<,<13ekkdppppu6<>>>*+X$8gkpi9@. ",
" X#wjsiw3@X=6uw74;@o3skjgjhhdpe9,O+,w6:X*0hkdu7$..",
" X#ejsi03@o=3u074;+o3skkhjhhhpe7,X@<w7:o*0dkpu7$..",
" .%rkhiw3@o:6u6<;><1ehkkkkhai01>--:3e7:o$7dhui7$. ",
" X%tljpw3%X=601%O2ikkhhklkde0,OO-48wu6:X$7pdpu7$X ",
"..*iljp03@X*371*@4alkhhhkkp07<O@;488y7:o$5idiy7$X ",
" .#rkhp03@X@;,113wsjhpphhh0>>>>><48wiw:o$7idii7$. ",
" .%wjfp03% ..+2rggggpiuuue1O+>00778udw,o$6pdii7@X ",
"..%whpp03% o+%3tkkkgpuu007>@%1ee878yse,+$7adii7$. ",
"..%ehdiw5@X%>49tdhhhsyu6,>>>15ee078wi0>O*7ajti9@..",
" .@eddi05@o,ejfiiidhiuu,OO=eewue068wu7:X*9gkst9@..",
" .@ehdiw1@o,tkhiuiisy97>+O1uuyyyq488e7:X%qdkpi9@..",
"  @ehdi05@o>ejfiiiii7,>=:=5euipiw87qu7:O*7ajiu7@. ",
" .@edspw3@X,whsiuuuu<+o-437yipdsr88qe7:X$7idiu0@..",
" X#qdsiw3*X=3e077676-o @<<2777ww422471=X$7idii0@..",
" X#ejsaw3$.@;,,>=:::@X.+$--::>>>;--::=@.$6ihiu6@..",
" .@edsiw3% .oOoXooooX  XXXooOOOOXXXXXX. $7idiu0@. ",
" X@wdayw3>**$*****$%$$$$*%%*****$$$$$$$$>7rayy7%X ",
" X@whae89666667797765766647qqqqq7677667779weey7%. ",
" X@eha870riiiasdhspippipiasfgghddiiiiiiiue8weu7$. ",
" .@wayw8eiddddgkkhhdssdsdhfkkkkjjdddddddiw78ww6@X ",
"..+3wweweiiiiiiipiiiiiuiiiipaaaiiiiiiiiiyeew774+  ",
" .+287eyuuuitiiiuuiiiuiutiiiiyiipiiyuiiuiyyew82+. ",
"  o:526777777797700607600799875877777777777622,+  ",
"  .+++@$$$@%%@%%@@@@@$@@@@@@@@@-$@$$$@%@@%@@@++.  ",
"     X.XX XX XXX XX XX X X XX X ..X.X.X.X..X X.   ",
"                                                  "
};
